<?xml version="1.0" encoding="UTF-8"?>
<svg width="282px" height="113px" viewBox="0 0 282 113" version="1.1" xmlns="http://www.w3.org/2000/svg" xmlns:xlink="http://www.w3.org/1999/xlink">
    <title>Hyperfork Logo White Copy 6</title>
    <defs>
        <linearGradient x1="100%" y1="50%" x2="-2.22044605e-14%" y2="50%" id="linearGradient-1">
            <stop stop-color="#000000" offset="0%"></stop>
            <stop stop-color="#000000" offset="100%"></stop>
        </linearGradient>
        <path d="M7.84539154,34.4527307 C11.4547252,34.4527307 13.9546966,32.4371288 15.2828064,30.2184042 L15.5171787,30.2184042 L14.8765611,34.1089846 L22.4389745,34.1089846 L27.7514137,2.10935086 L20.1108762,2.10935086 L18.0952742,14.2185873 L17.9234012,14.2185873 C17.3765325,12.0154875 15.6578021,9.79676288 11.8765954,9.79676288 C6.8610278,9.79676288 1.68921199,13.6560937 0.282978084,22.1247468 C-1.06075654,30.2965283 2.53295233,34.4527307 7.84539154,34.4527307 Z M11.4547252,28.4996738 C8.61100778,28.4996738 7.48602065,25.9840776 8.12663832,22.109122 C8.76725599,18.2497911 10.7203586,15.7654446 13.5484513,15.7654446 C16.3609191,15.7654446 17.59528,18.1872919 16.9546623,22.109122 C16.3140446,25.9997025 14.2203186,28.4996738 11.4547252,28.4996738 Z" id="path-2"></path>
        <linearGradient x1="100%" y1="50%" x2="-2.22044605e-14%" y2="50%" id="linearGradient-3">
            <stop stop-color="#000000" offset="0%"></stop>
            <stop stop-color="#000000" offset="100%"></stop>
        </linearGradient>
        <path d="M28.4594625,34.1089846 L36.1000001,34.1089846 L40.0999543,10.1092593 L32.4594167,10.1092593 L28.4594625,34.1089846 Z M36.8187418,7.29679149 C38.9749672,7.29679149 40.9593194,5.64056045 41.2405662,3.64058334 C41.5061882,1.6249814 40.0062054,0 37.8343552,0 C35.6781299,0 33.6937776,1.6249814 33.3812812,3.64058334 C33.0844096,5.64056045 34.6468917,7.29679149 36.8187418,7.29679149 Z" id="path-4"></path>
        <linearGradient x1="100%" y1="50%" x2="-2.22044605e-14%" y2="50%" id="linearGradient-5">
            <stop stop-color="#000000" offset="0%"></stop>
            <stop stop-color="#000000" offset="100%"></stop>
        </linearGradient>
        <path d="M59.7919813,10.1092593 L55.1982838,10.1092593 L55.4170313,8.76552469 C55.6670285,7.39054042 56.3545206,6.54680008 58.1201254,6.54680008 C58.854492,6.54680008 59.6669827,6.70304829 60.2294762,6.87492132 L62.3388271,1.28123534 C61.4950868,1.0312382 59.4951097,0.609368026 57.370134,0.609368026 C52.4951898,0.609368026 48.6514838,3.32808691 47.7608689,8.89052325 L47.5577463,10.1092593 L44.3546579,10.1092593 L43.4015438,15.7341949 L46.620257,15.7341949 L43.557792,34.1089846 L51.1827048,34.1089846 L54.2451697,15.7341949 L58.8388672,15.7341949 L59.7919813,10.1092593 Z" id="path-6"></path>
        <path d="M78.3122023,10.1092593 L73.7185048,10.1092593 L73.9372523,8.76552469 C74.1872495,7.39054042 74.8747416,6.54680008 76.6403464,6.54680008 C77.374713,6.54680008 78.1872037,6.70304829 78.7496972,6.87492132 L80.8590481,1.28123534 C80.0153078,1.0312382 78.0153307,0.609368026 75.890355,0.609368026 C71.0154108,0.609368026 67.1717048,3.32808691 66.2810899,8.89052325 L66.0779673,10.1092593 L62.8748789,10.1092593 L61.9217648,15.7341949 L65.140478,15.7341949 L62.078013,34.1089846 L69.7029258,34.1089846 L72.7653907,15.7341949 L77.3590882,15.7341949 L78.3122023,10.1092593 Z" id="path-7"></path>
        <linearGradient x1="100%" y1="50%" x2="-2.22044605e-14%" y2="50%" id="linearGradient-8">
            <stop stop-color="#000000" offset="0%"></stop>
            <stop stop-color="#000000" offset="100%"></stop>
        </linearGradient>
        <path d="M96.3636786,23.7497282 C95.9261836,26.5465712 93.8793321,28.1090533 91.613733,28.1090533 C89.2700098,28.1090533 88.0981482,26.5153216 88.5043936,23.9059764 L90.8012423,10.1092593 L83.1607047,10.1092593 L80.598234,25.4059592 C79.7076192,30.8277722 82.4107133,34.4214811 87.3481568,34.4214811 C90.9418657,34.4214811 93.9887058,32.5777522 95.4730638,29.6402858 L95.723061,29.6402858 L94.9886944,34.1089846 L102.269861,34.1089846 L106.269815,10.1092593 L98.6449025,10.1092593 L96.3636786,23.7497282 Z" id="path-9"></path>
        <linearGradient x1="100%" y1="50%" x2="-2.22044605e-14%" y2="50%" id="linearGradient-10">
            <stop stop-color="#000000" offset="0%"></stop>
            <stop stop-color="#000000" offset="100%"></stop>
        </linearGradient>
        <path d="M131.977576,17.4373004 C132.399446,12.7029796 128.821362,9.79676288 122.118313,9.79676288 C115.837135,9.79676288 111.446561,12.3904832 110.665319,17.0310551 C110.024702,20.8903859 112.134053,23.4528566 116.790249,24.3434714 L120.852703,25.1403373 C122.790181,25.5309578 123.415174,25.9684528 123.290175,26.8590676 C123.102677,28.2496767 121.352697,29.3121645 119.196472,29.2652901 C117.243369,29.2340404 116.040258,28.3434256 115.977759,26.5778208 L108.540344,26.7653187 C108.305971,31.4683899 111.977804,34.5621045 119.008974,34.5621045 C125.274527,34.5621045 130.258845,31.5777636 131.071336,26.827818 C131.665079,23.1403602 129.540103,20.8903859 124.915156,19.9685215 L120.415208,19.0935315 C118.47773,18.6872861 118.071485,18.1404174 118.227733,17.390426 C118.415231,16.0154417 120.19646,15.031078 122.165188,15.031078 C123.977667,15.031078 125.102654,16.077941 125.087029,17.6247983 L131.977576,17.4373004 Z" id="path-11"></path>
        <path d="M134.779317,34.1089846 L142.419855,34.1089846 L146.419809,10.1092593 L138.779272,10.1092593 L134.779317,34.1089846 Z M143.138597,7.29679149 C145.294822,7.29679149 147.279174,5.64056045 147.560421,3.64058334 C147.826043,1.6249814 146.32606,0 144.15421,0 C141.997985,0 140.013633,1.6249814 139.701136,3.64058334 C139.404265,5.64056045 140.966747,7.29679149 143.138597,7.29679149 Z" id="path-12"></path>
        <linearGradient x1="100%" y1="50%" x2="-2.22044605e-14%" y2="50%" id="linearGradient-13">
            <stop stop-color="#000000" offset="0%"></stop>
            <stop stop-color="#000000" offset="100%"></stop>
        </linearGradient>
        <path d="M159.627535,34.5621045 C167.143074,34.5621045 172.518013,29.5934113 173.752374,22.2341205 C174.955485,14.8123305 171.189903,9.79676288 163.643115,9.79676288 C156.096326,9.79676288 150.721387,14.765456 149.518276,22.1403716 C148.283915,29.5465369 152.049497,34.5621045 159.627535,34.5621045 Z M160.486901,28.7965454 C157.705682,28.7965454 156.62757,26.1403258 157.283812,22.1872461 C157.92443,18.1872919 159.971282,15.4529482 162.783749,15.4529482 C165.549343,15.4529482 166.627455,18.1404174 165.986838,22.0778723 C165.330595,26.0934514 163.283744,28.7965454 160.486901,28.7965454 Z" id="path-14"></path>
        <linearGradient x1="100%" y1="50%" x2="-2.22044605e-14%" y2="50%" id="linearGradient-15">
            <stop stop-color="#000000" offset="0%"></stop>
            <stop stop-color="#000000" offset="100%"></stop>
        </linearGradient>
        <path d="M186.83527,20.4216413 C187.28839,17.6872976 189.178994,16.0623162 191.585216,16.0623162 C194.038313,16.0623162 195.1633,17.6560479 194.725805,20.3122675 L192.428956,34.1089846 L200.069494,34.1089846 L202.631965,18.8122847 C203.538204,13.3904718 200.83511,9.79676288 195.803918,9.79676288 C192.241459,9.79676288 189.225868,11.5779925 187.725885,14.5154589 L187.460263,14.5154589 L188.179005,10.1092593 L180.913463,10.1092593 L176.913509,34.1089846 L184.554047,34.1089846 L186.83527,20.4216413 Z" id="path-16"></path>
        <linearGradient x1="100%" y1="50%" x2="-2.22044605e-14%" y2="50%" id="linearGradient-17">
            <stop stop-color="#000000" offset="0%"></stop>
            <stop stop-color="#000000" offset="100%"></stop>
        </linearGradient>
        <path d="M210.480554,34.5621045 C212.589904,34.5621045 214.683631,32.76525 214.886753,30.499651 C215.089876,28.2965512 213.38677,26.4996967 211.230545,26.4996967 C208.964946,26.4996967 206.964969,28.2809263 206.761846,30.499651 C206.574348,32.76525 208.214955,34.5621045 210.480554,34.5621045 Z" id="path-18"></path>
        <linearGradient x1="100%" y1="50%" x2="-2.22044605e-14%" y2="50%" id="linearGradient-19">
            <stop stop-color="#000000" offset="0%"></stop>
            <stop stop-color="#000000" offset="100%"></stop>
        </linearGradient>
        <path d="M230.235091,43.6088759 C237.438133,43.6088759 242.93807,40.3276635 243.906809,34.2027336 L247.906763,10.1092593 L240.297475,10.1092593 L239.625608,14.2185873 L239.406861,14.2185873 C238.828742,12.0154875 237.125637,9.79676288 233.34443,9.79676288 C228.328862,9.79676288 223.125797,13.6560937 221.735188,22.0778723 C220.391453,30.234029 224.125786,33.7808634 229.39135,33.7808634 C232.92256,33.7808634 235.563155,32.1402572 236.81314,29.9215326 L237.078762,29.9215326 L236.375645,34.1402343 C235.93815,37.2026992 233.844424,38.3120615 231.281954,38.3120615 C228.797607,38.3120615 227.531997,37.4058219 227.344499,35.8902143 L220.032082,36.2964596 C219.953958,40.4995365 223.360169,43.6088759 230.235091,43.6088759 Z M232.92256,28.2184271 C230.094467,28.2184271 228.953855,25.9215783 229.578848,22.0778723 C230.188216,18.2497911 232.141319,15.7654446 234.985036,15.7654446 C237.781879,15.7654446 239.01624,18.1872919 238.406872,22.0778723 C237.781879,25.9372032 235.703778,28.2184271 232.92256,28.2184271 Z" id="path-20"></path>
        <path d="M259.630312,43.6088759 C266.833354,43.6088759 272.333291,40.3276635 273.30203,34.2027336 L277.301984,10.1092593 L269.692696,10.1092593 L269.020829,14.2185873 L268.802082,14.2185873 C268.223963,12.0154875 266.520858,9.79676288 262.739651,9.79676288 C257.724083,9.79676288 252.521018,13.6560937 251.130409,22.0778723 C249.786674,30.234029 253.521007,33.7808634 258.786571,33.7808634 C262.317781,33.7808634 264.958376,32.1402572 266.208361,29.9215326 L266.473983,29.9215326 L265.770866,34.1402343 C265.333371,37.2026992 263.239645,38.3120615 260.677175,38.3120615 C258.192828,38.3120615 256.927218,37.4058219 256.73972,35.8902143 L249.427303,36.2964596 C249.349179,40.4995365 252.75539,43.6088759 259.630312,43.6088759 Z M262.317781,28.2184271 C259.489688,28.2184271 258.349076,25.9215783 258.974069,22.0778723 C259.583437,18.2497911 261.53654,15.7654446 264.380257,15.7654446 C267.1771,15.7654446 268.411461,18.1872919 267.802093,22.0778723 C267.1771,25.9372032 265.098999,28.2184271 262.317781,28.2184271 Z" id="path-21"></path>
    </defs>
    <g id="Hyperfork-Logo-White-Copy-6" stroke="none" stroke-width="1" fill="none" fill-rule="evenodd">
        <g id="diffusion.gg" transform="translate(3.083727, 38.891015)" fill-rule="nonzero">
            <g id="Shape">
                <use fill="#FFFFFF" xlink:href="#path-2"></use>
                <use fill="url(#linearGradient-1)" xlink:href="#path-2"></use>
            </g>
            <g id="Shape">
                <use fill="#FFFFFF" xlink:href="#path-4"></use>
                <use fill="url(#linearGradient-3)" xlink:href="#path-4"></use>
            </g>
            <g id="Path">
                <use fill="#FFFFFF" xlink:href="#path-6"></use>
                <use fill="url(#linearGradient-5)" xlink:href="#path-6"></use>
            </g>
            <g id="Path">
                <use fill="#FFFFFF" xlink:href="#path-7"></use>
                <use fill="url(#linearGradient-5)" xlink:href="#path-7"></use>
            </g>
            <g id="Path">
                <use fill="#FFFFFF" xlink:href="#path-9"></use>
                <use fill="url(#linearGradient-8)" xlink:href="#path-9"></use>
            </g>
            <g id="Path">
                <use fill="#FFFFFF" xlink:href="#path-11"></use>
                <use fill="url(#linearGradient-10)" xlink:href="#path-11"></use>
            </g>
            <g id="Shape">
                <use fill="#FFFFFF" xlink:href="#path-12"></use>
                <use fill="url(#linearGradient-3)" xlink:href="#path-12"></use>
            </g>
            <g id="Shape">
                <use fill="#FFFFFF" xlink:href="#path-14"></use>
                <use fill="url(#linearGradient-13)" xlink:href="#path-14"></use>
            </g>
            <g id="Path">
                <use fill="#FFFFFF" xlink:href="#path-16"></use>
                <use fill="url(#linearGradient-15)" xlink:href="#path-16"></use>
            </g>
            <g id="Path">
                <use fill="#FFFFFF" xlink:href="#path-18"></use>
                <use fill="url(#linearGradient-17)" xlink:href="#path-18"></use>
            </g>
            <g id="Shape">
                <use fill="#FFFFFF" xlink:href="#path-20"></use>
                <use fill="url(#linearGradient-19)" xlink:href="#path-20"></use>
            </g>
            <g id="Shape">
                <use fill="#FFFFFF" xlink:href="#path-21"></use>
                <use fill="url(#linearGradient-19)" xlink:href="#path-21"></use>
            </g>
        </g>
    </g>
</svg>