<svg width="20" height="14" viewBox="0 0 20 14" fill="#fff" xmlns="http://www.w3.org/2000/svg"><path d="M17.2625 1.75075C17.2625 1.75075 15.1813 0.18049 12.7188 0L12.5 0.427159C14.725 0.95058 15.7437 1.70262 16.8125 2.62312C14.975 1.72067 13.1562 0.872368 9.99375 0.872368C6.83125 0.872368 5.0125 1.72067 3.175 2.62312C4.24375 1.70262 5.45625 0.866351 7.4875 0.427159L7.26875 0C4.6875 0.234637 2.725 1.75075 2.725 1.75075C2.725 1.75075 0.4 4.99957 0 11.3769C2.34375 13.982 5.90625 14 5.90625 14L6.65 13.0434C5.3875 12.6223 3.95625 11.8642 2.725 10.4985C4.19375 11.5694 6.41875 12.6884 10 12.6884C13.5813 12.6884 15.8 11.5754 17.275 10.4985C16.0438 11.8642 14.6125 12.6223 13.35 13.0434L14.0938 14C14.0938 14 17.6562 13.982 20 11.3769C19.5875 4.99957 17.2625 1.75075 17.2625 1.75075ZM7.03125 9.62613C6.15 9.62613 5.4375 8.84401 5.4375 7.87538C5.4375 6.90675 6.15 6.12462 7.03125 6.12462C7.9125 6.12462 8.625 6.90675 8.625 7.87538C8.625 8.84401 7.9125 9.62613 7.03125 9.62613ZM12.9437 9.62613C12.0625 9.62613 11.35 8.84401 11.35 7.87538C11.35 6.90675 12.0625 6.12462 12.9437 6.12462C13.825 6.12462 14.5375 6.90675 14.5375 7.87538C14.5375 8.84401 13.8187 9.62613 12.9437 9.62613Z" fill="#fff"></path></svg>